<svg width="220" height="35" viewBox="0 0 220 35" fill="none" xmlns="http://www.w3.org/2000/svg">
<rect y="33" width="220" height="2" fill="#E7E7E7"/>
<rect width="220" height="33" fill="white"/>
<path d="M33.315 21.07C33.345 21.16 33.36 21.255 33.36 21.355C33.36 21.555 33.29 21.72 33.15 21.85C33.02 21.98 32.865 22.045 32.685 22.045C32.545 22.045 32.415 22.005 32.295 21.925C32.185 21.835 32.095 21.715 32.025 21.565L31.095 19.36H26.46L25.545 21.58C25.495 21.73 25.41 21.845 25.29 21.925C25.18 22.005 25.055 22.045 24.915 22.045C24.705 22.045 24.545 21.99 24.435 21.88C24.325 21.77 24.27 21.62 24.27 21.43C24.27 21.39 24.28 21.31 24.3 21.19L28.125 11.92C28.195 11.76 28.29 11.64 28.41 11.56C28.54 11.47 28.685 11.435 28.845 11.455C28.995 11.455 29.13 11.495 29.25 11.575C29.37 11.655 29.455 11.77 29.505 11.92L33.315 21.07ZM27.03 17.995H30.525L28.77 13.795L27.03 17.995ZM38.634 14.005C39.314 14.005 39.929 14.18 40.479 14.53C41.029 14.87 41.459 15.35 41.769 15.97C42.089 16.59 42.249 17.29 42.249 18.07C42.249 18.85 42.089 19.55 41.769 20.17C41.459 20.78 41.029 21.26 40.479 21.61C39.929 21.96 39.324 22.135 38.664 22.135C38.144 22.135 37.659 22.02 37.209 21.79C36.759 21.56 36.394 21.28 36.114 20.95V24.28C36.114 24.48 36.044 24.65 35.904 24.79C35.774 24.93 35.604 25 35.394 25C35.194 25 35.024 24.93 34.884 24.79C34.754 24.66 34.689 24.49 34.689 24.28V14.845C34.689 14.635 34.754 14.46 34.884 14.32C35.014 14.18 35.184 14.11 35.394 14.11C35.604 14.11 35.774 14.18 35.904 14.32C36.044 14.46 36.114 14.635 36.114 14.845V15.28C36.354 14.93 36.704 14.63 37.164 14.38C37.624 14.13 38.114 14.005 38.634 14.005ZM38.469 20.815C38.929 20.815 39.344 20.695 39.714 20.455C40.084 20.215 40.369 19.89 40.569 19.48C40.779 19.06 40.884 18.59 40.884 18.07C40.884 17.55 40.779 17.085 40.569 16.675C40.369 16.255 40.084 15.925 39.714 15.685C39.344 15.445 38.929 15.325 38.469 15.325C37.999 15.325 37.579 15.445 37.209 15.685C36.839 15.915 36.549 16.24 36.339 16.66C36.139 17.08 36.039 17.55 36.039 18.07C36.039 18.59 36.139 19.06 36.339 19.48C36.549 19.9 36.839 20.23 37.209 20.47C37.579 20.7 37.999 20.815 38.469 20.815ZM47.8179 13.96C48.0779 13.96 48.3029 14.03 48.4929 14.17C48.6829 14.3 48.7779 14.465 48.7779 14.665C48.7779 14.905 48.7129 15.09 48.5829 15.22C48.4629 15.34 48.3129 15.4 48.1329 15.4C48.0429 15.4 47.9079 15.37 47.7279 15.31C47.5179 15.24 47.3529 15.205 47.2329 15.205C46.9229 15.205 46.6179 15.315 46.3179 15.535C46.0279 15.745 45.7879 16.04 45.5979 16.42C45.4179 16.79 45.3279 17.205 45.3279 17.665V21.28C45.3279 21.48 45.2579 21.65 45.1179 21.79C44.9879 21.93 44.8179 22 44.6079 22C44.3979 22 44.2279 21.935 44.0979 21.805C43.9679 21.665 43.9029 21.49 43.9029 21.28V14.86C43.9029 14.66 43.9679 14.49 44.0979 14.35C44.2379 14.21 44.4079 14.14 44.6079 14.14C44.8179 14.14 44.9879 14.21 45.1179 14.35C45.2579 14.49 45.3279 14.66 45.3279 14.86V15.625C45.5479 15.135 45.8779 14.74 46.3179 14.44C46.7579 14.13 47.2579 13.97 47.8179 13.96ZM56.6623 17.77C56.6523 17.95 56.5773 18.105 56.4373 18.235C56.2973 18.355 56.1323 18.415 55.9423 18.415H50.6623C50.7323 19.145 51.0073 19.73 51.4873 20.17C51.9773 20.61 52.5723 20.83 53.2723 20.83C53.7523 20.83 54.1423 20.76 54.4423 20.62C54.7423 20.48 55.0073 20.3 55.2373 20.08C55.3873 19.99 55.5323 19.945 55.6723 19.945C55.8423 19.945 55.9823 20.005 56.0923 20.125C56.2123 20.245 56.2723 20.385 56.2723 20.545C56.2723 20.755 56.1723 20.945 55.9723 21.115C55.6823 21.405 55.2973 21.65 54.8173 21.85C54.3373 22.05 53.8473 22.15 53.3473 22.15C52.5373 22.15 51.8223 21.98 51.2023 21.64C50.5923 21.3 50.1173 20.825 49.7773 20.215C49.4473 19.605 49.2823 18.915 49.2823 18.145C49.2823 17.305 49.4523 16.57 49.7923 15.94C50.1423 15.3 50.5973 14.81 51.1573 14.47C51.7273 14.13 52.3373 13.96 52.9873 13.96C53.6273 13.96 54.2273 14.125 54.7873 14.455C55.3473 14.785 55.7973 15.24 56.1373 15.82C56.4773 16.4 56.6523 17.05 56.6623 17.77ZM52.9873 15.28C52.4273 15.28 51.9423 15.44 51.5323 15.76C51.1223 16.07 50.8523 16.555 50.7223 17.215H55.1473V17.095C55.0973 16.565 54.8573 16.13 54.4273 15.79C54.0073 15.45 53.5273 15.28 52.9873 15.28ZM57.867 20.77C57.777 20.63 57.732 20.495 57.732 20.365C57.732 20.165 57.837 19.995 58.047 19.855C58.147 19.785 58.262 19.75 58.392 19.75C58.572 19.75 58.737 19.825 58.887 19.975C59.187 20.315 59.507 20.57 59.847 20.74C60.197 20.91 60.612 20.995 61.092 20.995C61.472 20.985 61.807 20.9 62.097 20.74C62.387 20.57 62.532 20.3 62.532 19.93C62.532 19.59 62.382 19.33 62.082 19.15C61.792 18.97 61.362 18.805 60.792 18.655C60.232 18.505 59.767 18.35 59.397 18.19C59.027 18.02 58.712 17.78 58.452 17.47C58.202 17.15 58.077 16.735 58.077 16.225C58.077 15.775 58.202 15.38 58.452 15.04C58.712 14.7 59.052 14.435 59.472 14.245C59.902 14.055 60.367 13.96 60.867 13.96C61.347 13.96 61.822 14.05 62.292 14.23C62.772 14.41 63.162 14.685 63.462 15.055C63.582 15.195 63.642 15.34 63.642 15.49C63.642 15.65 63.562 15.805 63.402 15.955C63.302 16.045 63.177 16.09 63.027 16.09C62.847 16.09 62.702 16.03 62.592 15.91C62.382 15.67 62.122 15.485 61.812 15.355C61.512 15.225 61.177 15.16 60.807 15.16C60.427 15.16 60.102 15.24 59.832 15.4C59.572 15.55 59.442 15.81 59.442 16.18C59.452 16.53 59.602 16.79 59.892 16.96C60.192 17.13 60.647 17.295 61.257 17.455C61.787 17.595 62.227 17.745 62.577 17.905C62.927 18.065 63.222 18.305 63.462 18.625C63.702 18.935 63.822 19.345 63.822 19.855C63.822 20.325 63.687 20.735 63.417 21.085C63.147 21.425 62.792 21.69 62.352 21.88C61.922 22.06 61.462 22.15 60.972 22.15C60.342 22.15 59.757 22.04 59.217 21.82C58.687 21.6 58.237 21.25 57.867 20.77ZM72.3654 17.77C72.3554 17.95 72.2804 18.105 72.1404 18.235C72.0004 18.355 71.8354 18.415 71.6454 18.415H66.3654C66.4354 19.145 66.7104 19.73 67.1904 20.17C67.6804 20.61 68.2754 20.83 68.9754 20.83C69.4554 20.83 69.8454 20.76 70.1454 20.62C70.4454 20.48 70.7104 20.3 70.9404 20.08C71.0904 19.99 71.2354 19.945 71.3754 19.945C71.5454 19.945 71.6854 20.005 71.7954 20.125C71.9154 20.245 71.9754 20.385 71.9754 20.545C71.9754 20.755 71.8754 20.945 71.6754 21.115C71.3854 21.405 71.0004 21.65 70.5204 21.85C70.0404 22.05 69.5504 22.15 69.0504 22.15C68.2404 22.15 67.5254 21.98 66.9054 21.64C66.2954 21.3 65.8204 20.825 65.4804 20.215C65.1504 19.605 64.9854 18.915 64.9854 18.145C64.9854 17.305 65.1554 16.57 65.4954 15.94C65.8454 15.3 66.3004 14.81 66.8604 14.47C67.4304 14.13 68.0404 13.96 68.6904 13.96C69.3304 13.96 69.9304 14.125 70.4904 14.455C71.0504 14.785 71.5004 15.24 71.8404 15.82C72.1804 16.4 72.3554 17.05 72.3654 17.77ZM68.6904 15.28C68.1304 15.28 67.6454 15.44 67.2354 15.76C66.8254 16.07 66.5554 16.555 66.4254 17.215H70.8504V17.095C70.8004 16.565 70.5604 16.13 70.1304 15.79C69.7104 15.45 69.2304 15.28 68.6904 15.28ZM78.0251 13.96C79.8251 13.96 80.7251 15.04 80.7251 17.2V21.28C80.7251 21.48 80.6551 21.65 80.5151 21.79C80.3851 21.93 80.2151 22 80.0051 22C79.8051 22 79.6351 21.93 79.4951 21.79C79.3651 21.65 79.3001 21.48 79.3001 21.28V17.215C79.3001 16.625 79.1651 16.155 78.8951 15.805C78.6251 15.455 78.1851 15.28 77.5751 15.28C77.1751 15.28 76.8101 15.37 76.4801 15.55C76.1601 15.72 75.9051 15.955 75.7151 16.255C75.5351 16.545 75.4451 16.865 75.4451 17.215V21.28C75.4451 21.48 75.3751 21.65 75.2351 21.79C75.1051 21.93 74.9351 22 74.7251 22C74.5151 22 74.3451 21.935 74.2151 21.805C74.0851 21.665 74.0201 21.49 74.0201 21.28V14.86C74.0201 14.66 74.0851 14.49 74.2151 14.35C74.3551 14.21 74.5251 14.14 74.7251 14.14C74.9351 14.14 75.1051 14.21 75.2351 14.35C75.3751 14.49 75.4451 14.66 75.4451 14.86V15.385C75.7051 14.985 76.0651 14.65 76.5251 14.38C76.9951 14.1 77.4951 13.96 78.0251 13.96ZM84.9831 15.535V20.005C84.9831 20.505 85.2081 20.755 85.6581 20.755C85.7281 20.755 85.8231 20.74 85.9431 20.71C86.0631 20.67 86.1581 20.65 86.2281 20.65C86.3581 20.65 86.4681 20.705 86.5581 20.815C86.6481 20.925 86.6931 21.065 86.6931 21.235C86.6931 21.445 86.5731 21.625 86.3331 21.775C86.0931 21.925 85.8231 22 85.5231 22C85.1931 22 84.8881 21.965 84.6081 21.895C84.3381 21.825 84.0931 21.65 83.8731 21.37C83.6631 21.08 83.5581 20.645 83.5581 20.065V15.535H82.6881C82.4981 15.535 82.3381 15.475 82.2081 15.355C82.0881 15.225 82.0281 15.065 82.0281 14.875C82.0281 14.685 82.0881 14.53 82.2081 14.41C82.3381 14.29 82.4981 14.23 82.6881 14.23H83.5581V12.97C83.5581 12.77 83.6231 12.6 83.7531 12.46C83.8931 12.32 84.0681 12.25 84.2781 12.25C84.4781 12.25 84.6431 12.32 84.7731 12.46C84.9131 12.6 84.9831 12.77 84.9831 12.97V14.23H86.2281C86.4181 14.23 86.5731 14.295 86.6931 14.425C86.8231 14.545 86.8881 14.7 86.8881 14.89C86.8881 15.08 86.8231 15.235 86.6931 15.355C86.5731 15.475 86.4181 15.535 86.2281 15.535H84.9831ZM94.9263 14.035C95.1363 14.035 95.3063 14.105 95.4363 14.245C95.5763 14.375 95.6463 14.55 95.6463 14.77V21.28C95.6463 21.48 95.5763 21.65 95.4363 21.79C95.3063 21.93 95.1363 22 94.9263 22C94.7163 22 94.5463 21.935 94.4163 21.805C94.2863 21.665 94.2213 21.49 94.2213 21.28V20.89C93.9613 21.24 93.6063 21.54 93.1563 21.79C92.7063 22.03 92.2213 22.15 91.7013 22.15C91.0213 22.15 90.4013 21.975 89.8413 21.625C89.2913 21.275 88.8563 20.79 88.5363 20.17C88.2263 19.54 88.0713 18.835 88.0713 18.055C88.0713 17.275 88.2263 16.575 88.5363 15.955C88.8563 15.325 89.2913 14.835 89.8413 14.485C90.3913 14.135 90.9963 13.96 91.6563 13.96C92.1863 13.96 92.6763 14.07 93.1263 14.29C93.5863 14.51 93.9513 14.79 94.2213 15.13V14.77C94.2213 14.56 94.2863 14.385 94.4163 14.245C94.5463 14.105 94.7163 14.035 94.9263 14.035ZM91.8663 20.83C92.3363 20.83 92.7513 20.71 93.1113 20.47C93.4813 20.23 93.7663 19.9 93.9663 19.48C94.1763 19.06 94.2813 18.585 94.2813 18.055C94.2813 17.535 94.1763 17.065 93.9663 16.645C93.7663 16.225 93.4813 15.895 93.1113 15.655C92.7513 15.405 92.3363 15.28 91.8663 15.28C91.3963 15.28 90.9763 15.4 90.6063 15.64C90.2463 15.88 89.9613 16.21 89.7513 16.63C89.5513 17.05 89.4513 17.525 89.4513 18.055C89.4513 18.585 89.5513 19.06 89.7513 19.48C89.9613 19.9 90.2463 20.23 90.6063 20.47C90.9763 20.71 91.3963 20.83 91.8663 20.83ZM104.005 20.83C104.005 21.02 103.89 21.215 103.66 21.415C103.44 21.605 103.135 21.765 102.745 21.895C102.355 22.025 101.93 22.105 101.47 22.135L100.795 23.815C100.695 24.085 100.525 24.22 100.285 24.22C100.115 24.22 99.9302 24.16 99.7302 24.04C99.5402 23.93 99.4452 23.79 99.4452 23.62C99.4452 23.48 99.4952 23.355 99.5952 23.245L100.465 22.105C99.8252 22.005 99.2652 21.77 98.7852 21.4C98.3052 21.02 97.9352 20.545 97.6752 19.975C97.4152 19.395 97.2852 18.755 97.2852 18.055C97.2852 17.285 97.4502 16.59 97.7802 15.97C98.1102 15.34 98.5702 14.85 99.1602 14.5C99.7502 14.14 100.425 13.96 101.185 13.96C101.975 13.96 102.63 14.085 103.15 14.335C103.68 14.585 103.945 14.905 103.945 15.295C103.945 15.465 103.89 15.62 103.78 15.76C103.67 15.89 103.53 15.955 103.36 15.955C103.23 15.955 103.125 15.935 103.045 15.895C102.975 15.855 102.875 15.79 102.745 15.7C102.685 15.64 102.59 15.57 102.46 15.49C102.34 15.43 102.17 15.38 101.95 15.34C101.73 15.3 101.53 15.28 101.35 15.28C100.83 15.28 100.37 15.4 99.9702 15.64C99.5702 15.88 99.2602 16.215 99.0402 16.645C98.8202 17.065 98.7102 17.535 98.7102 18.055C98.7102 18.585 98.8152 19.06 99.0252 19.48C99.2452 19.9 99.5502 20.23 99.9402 20.47C100.33 20.71 100.775 20.83 101.275 20.83C101.795 20.83 102.215 20.75 102.535 20.59C102.605 20.55 102.7 20.485 102.82 20.395C102.92 20.315 103.005 20.255 103.075 20.215C103.155 20.175 103.25 20.155 103.36 20.155C103.56 20.155 103.715 20.22 103.825 20.35C103.945 20.47 104.005 20.63 104.005 20.83ZM111.845 14.035C112.055 14.035 112.225 14.105 112.355 14.245C112.495 14.375 112.565 14.55 112.565 14.77V21.28C112.565 21.48 112.495 21.65 112.355 21.79C112.225 21.93 112.055 22 111.845 22C111.635 22 111.465 21.935 111.335 21.805C111.205 21.665 111.14 21.49 111.14 21.28V20.89C110.88 21.24 110.525 21.54 110.075 21.79C109.625 22.03 109.14 22.15 108.62 22.15C107.94 22.15 107.32 21.975 106.76 21.625C106.21 21.275 105.775 20.79 105.455 20.17C105.145 19.54 104.99 18.835 104.99 18.055C104.99 17.275 105.145 16.575 105.455 15.955C105.775 15.325 106.21 14.835 106.76 14.485C107.31 14.135 107.915 13.96 108.575 13.96C109.105 13.96 109.595 14.07 110.045 14.29C110.505 14.51 110.87 14.79 111.14 15.13V14.77C111.14 14.56 111.205 14.385 111.335 14.245C111.465 14.105 111.635 14.035 111.845 14.035ZM108.785 20.83C109.255 20.83 109.67 20.71 110.03 20.47C110.4 20.23 110.685 19.9 110.885 19.48C111.095 19.06 111.2 18.585 111.2 18.055C111.2 17.535 111.095 17.065 110.885 16.645C110.685 16.225 110.4 15.895 110.03 15.655C109.67 15.405 109.255 15.28 108.785 15.28C108.315 15.28 107.895 15.4 107.525 15.64C107.165 15.88 106.88 16.21 106.67 16.63C106.47 17.05 106.37 17.525 106.37 18.055C106.37 18.585 106.47 19.06 106.67 19.48C106.88 19.9 107.165 20.23 107.525 20.47C107.895 20.71 108.315 20.83 108.785 20.83ZM106.895 13.21C106.695 13.21 106.535 13.135 106.415 12.985C106.305 12.835 106.255 12.62 106.265 12.34C106.295 12 106.455 11.715 106.745 11.485C107.035 11.255 107.425 11.14 107.915 11.14C108.135 11.14 108.345 11.19 108.545 11.29C108.745 11.38 108.985 11.515 109.265 11.695C109.445 11.815 109.595 11.91 109.715 11.98C109.835 12.04 109.945 12.07 110.045 12.07C110.165 12.07 110.26 12.035 110.33 11.965C110.4 11.885 110.43 11.78 110.42 11.65C110.41 11.62 110.405 11.57 110.405 11.5C110.405 11.37 110.45 11.265 110.54 11.185C110.63 11.105 110.74 11.065 110.87 11.065C111.07 11.065 111.225 11.14 111.335 11.29C111.455 11.44 111.51 11.645 111.5 11.905C111.47 12.235 111.325 12.525 111.065 12.775C110.815 13.015 110.45 13.135 109.97 13.135C109.79 13.135 109.6 13.095 109.4 13.015C109.21 12.925 108.97 12.795 108.68 12.625C108.46 12.495 108.275 12.395 108.125 12.325C107.985 12.255 107.86 12.22 107.75 12.22C107.63 12.22 107.53 12.255 107.45 12.325C107.38 12.395 107.345 12.5 107.345 12.64C107.355 12.67 107.36 12.71 107.36 12.76C107.36 12.9 107.315 13.01 107.225 13.09C107.135 13.17 107.025 13.21 106.895 13.21ZM122.124 18.07C122.124 18.85 121.949 19.55 121.599 20.17C121.249 20.79 120.769 21.275 120.159 21.625C119.559 21.975 118.894 22.15 118.164 22.15C117.434 22.15 116.764 21.975 116.154 21.625C115.554 21.275 115.079 20.79 114.729 20.17C114.379 19.55 114.204 18.85 114.204 18.07C114.204 17.29 114.379 16.585 114.729 15.955C115.079 15.325 115.554 14.835 116.154 14.485C116.764 14.135 117.434 13.96 118.164 13.96C118.894 13.96 119.559 14.135 120.159 14.485C120.769 14.835 121.249 15.325 121.599 15.955C121.949 16.585 122.124 17.29 122.124 18.07ZM120.699 18.07C120.699 17.53 120.584 17.05 120.354 16.63C120.134 16.2 119.829 15.87 119.439 15.64C119.059 15.4 118.634 15.28 118.164 15.28C117.694 15.28 117.264 15.4 116.874 15.64C116.494 15.87 116.189 16.2 115.959 16.63C115.739 17.05 115.629 17.53 115.629 18.07C115.629 18.6 115.739 19.075 115.959 19.495C116.189 19.915 116.494 20.245 116.874 20.485C117.264 20.715 117.694 20.83 118.164 20.83C118.634 20.83 119.059 20.715 119.439 20.485C119.829 20.245 120.134 19.915 120.354 19.495C120.584 19.075 120.699 18.6 120.699 18.07Z" fill="#725C5C"/>
</svg>
