<svg width="25" height="14" viewBox="0 0 25 14" fill="none" xmlns="http://www.w3.org/2000/svg">
<path d="M22.4175 5.12592C19.8349 5.12592 14.6675 8.39642 12.0849 8.39642C9.50217 8.39642 6.59398 6.41629 6.59398 6.41629C6.59398 6.41629 10.0737 7.06148 12.0829 7.06148C14.0921 7.06148 14.6656 6.3756 14.6656 5.44754C14.6656 3.18648 10.8255 2.83579 8.8841 2.54129C6.9776 1.47954 5.98754 0.640605 2.82942 0.37323C2.81004 0.557292 2.78098 0.739418 2.7306 0.923481L0.136292 10.0685C3.07548 11.4054 8.13429 13.523 10.7906 13.523C14.6656 13.523 24.9983 8.35573 24.9983 7.06536C24.9983 5.77498 23.7079 5.12592 22.4175 5.12592Z" fill="#4D4D4D"/>
</svg>
