<svg width="27" height="17" viewBox="0 0 27 17" fill="none" xmlns="http://www.w3.org/2000/svg">
<path d="M26.603 1.39888C26.4906 1.03851 26.1186 0.767259 25.7427 0.716884C23.4565 0.414634 20.3236 0.00388303 17.8164 2.25913C16.1502 3.7607 15.9293 6.28332 17.2216 8.06582C16.0243 9.29419 15.2648 10.5652 14.7862 11.6831C14.298 10.664 13.7245 9.75144 13.151 8.96676C13.4086 8.32932 13.5443 7.62794 13.5365 6.88782C13.521 5.39401 12.9165 3.92926 11.9187 2.97213C8.86133 0.031008 5.02702 0.41657 1.9464 0.72657L1.78753 0.742071C1.41165 0.780821 1.09197 1.03269 0.967966 1.38919C0.845903 1.74569 0.94084 2.14288 1.21209 2.40445C2.59159 3.7297 2.87253 5.13826 3.1709 6.6282C3.43634 7.95345 3.70952 9.32519 4.82746 10.4005C5.88533 11.4177 7.28227 11.9292 8.64627 11.9292C9.87464 11.9292 11.0681 11.501 11.973 10.6659C12.8371 11.9505 13.6469 13.5373 13.9744 15.3024C13.9821 15.3431 14.0054 15.376 14.017 15.4148C14.0325 15.4613 14.0461 15.5039 14.0674 15.5465C14.1023 15.6163 14.1449 15.6783 14.1953 15.7364C14.2205 15.7674 14.2418 15.7984 14.2708 15.8255C14.3367 15.8875 14.4123 15.9359 14.4936 15.9766C14.5169 15.9883 14.5363 16.0057 14.5614 16.0154C14.6758 16.0619 14.7978 16.0948 14.9257 16.0948C14.9838 16.0948 15.0439 16.089 15.1039 16.0793C15.1466 16.0716 15.1776 16.0464 15.2183 16.0328C15.2706 16.0154 15.3171 15.9979 15.3655 15.9747C15.4314 15.9418 15.4895 15.9011 15.5438 15.8546C15.5825 15.8216 15.6174 15.7868 15.6523 15.748C15.6988 15.6938 15.7356 15.6395 15.7704 15.5756C15.7976 15.5271 15.8189 15.4768 15.8363 15.4244C15.8576 15.3605 15.8693 15.2985 15.877 15.2326C15.8809 15.1978 15.8983 15.1687 15.8983 15.1319C15.9003 14.9808 15.9778 12.0222 18.7406 9.28257C19.1533 9.45307 19.6048 9.56738 20.0872 9.59644C20.1783 9.60226 20.2693 9.60613 20.3604 9.60613C21.488 9.60613 22.6079 9.19344 23.4042 8.47851C24.3458 7.62988 24.5996 6.54682 24.8438 5.50057C25.1014 4.39426 25.3456 3.35188 26.3899 2.4122C26.6689 2.16032 26.7154 1.75926 26.603 1.39888Z" fill="#F0A880"/>
</svg>
